<?xml version="1.0" encoding="UTF-8" standalone="no"?>
<svg
   xmlns:dc="http://purl.org/dc/elements/1.1/"
   xmlns:cc="http://creativecommons.org/ns#"
   xmlns:rdf="http://www.w3.org/1999/02/22-rdf-syntax-ns#"
   xmlns:svg="http://www.w3.org/2000/svg"
   xmlns="http://www.w3.org/2000/svg"
   xmlns:sodipodi="http://sodipodi.sourceforge.net/DTD/sodipodi-0.dtd"
   xmlns:inkscape="http://www.inkscape.org/namespaces/inkscape"
   viewBox="0, 0, 504.44724, 339.25845"
   version="1.1"
   id="svg28"
   sodipodi:docname="yamaguchi.svg"
   inkscape:version="0.92.4 (5da689c313, 2019-01-14)">
  <metadata
     id="metadata34">
    <rdf:RDF>
      <cc:Work
         rdf:about="">
        <dc:format>image/svg+xml</dc:format>
      </cc:Work>
    </rdf:RDF>
  </metadata>
  <defs
     id="defs32" />
  <sodipodi:namedview
     pagecolor="#ffffff"
     bordercolor="#666666"
     borderopacity="1"
     objecttolerance="10"
     gridtolerance="10"
     guidetolerance="10"
     inkscape:pageopacity="0"
     inkscape:pageshadow="2"
     inkscape:window-width="1920"
     inkscape:window-height="995"
     id="namedview30"
     showgrid="false"
     fit-margin-top="0"
     fit-margin-left="0"
     fit-margin-right="0"
     fit-margin-bottom="0"
     inkscape:zoom="0.7516991"
     inkscape:cx="-38.632762"
     inkscape:cy="-8.8390457"
     inkscape:window-x="1920"
     inkscape:window-y="0"
     inkscape:window-maximized="1"
     inkscape:current-layer="svg28" />
  <path
     style="fill:#616161;fill-opacity:1;stroke:none;stroke-width:3.0236218;stroke-miterlimit:4;stroke-dasharray:none;stroke-opacity:1"
     d="m 35.820255,118.9181 c -1.75722,0.0177 -1.21155,2.44782 -3.07636,2.53852 -2.6683,1.67812 -6.07688,0.96337 -8.76141,2.15397 -0.77228,0.94838 -0.74717,4.42925 -2.66453,3.06987 -0.77756,-1.57043 -0.94664,-4.14281 -3.39595,-3.72463 -2.02216,-0.25826 -2.11917,-4.76289 -4.19103,-3.4726 -0.2955,1.95436 0.59235,4.5995 -1.88505,5.50315 -2.8318001,2.31903 -0.58681,6.10242 -0.4521,8.94718 -0.72916,0.86803 -0.63037,2.16493 -0.32089,2.65285 -0.95546,1.00362 0.85362,3.10581 -1.3017401,2.13708 -3.19574,0.49312 -0.58459,6.93371 -4.64962,6.26316 -2.57096,0.0678 -1.87805,3.85643 0.0676,4.61454 3.81596,2.26531 6.0769501,5.98168 8.1365101,9.75005 2.86039,3.8437 7.83687,7.66055 6.08777,13.12391 -1.42942,2.31874 0.16577,4.00309 2.46447,4.00136 1.23861,4.21545 1.14996,9.06829 -0.72102,13.12911 -1.01637,3.73108 -3.46781,8.1618 -7.74158,8.63668 -3.04261,1.45769 3.12594,3.49197 0.0987,5.22644 -1.58221,1.30042 -5.0299801,3.34969 -5.9708401,0.41962 -1.8245,-1.56698 -1.2378,1.99809 -2.95295,1.59015 -2.84808,-0.77079 -3.06335,2.27001 -2.875,4.25469 0.23536,2.60893 -2.64495001,5.15848 -1.40307001,7.5571 1.72008001,0.85412 4.06269001,1.67039 3.49599001,4.09229 -0.13349,2.06605 2.35291,2.55833 2.05264,4.62883 1.06917,1.78676 2.16165,5.42462 4.6145401,5.30699 0.97326,-1.66112 2.76322,-0.42463 3.01271,1.00293 1.5469,0.59516 3.13035,1.22888 2.89189,3.29073 1.19357,3.68329 -0.5617,7.05588 -2.20724,10.21254 -0.0381,1.55258 2.7456,0.76273 2.48915,2.77236 0.89996,4.27577 -1.72648,8.41577 -1.11726,12.60426 1.38573,3.18469 1.669,6.6355 -0.20203,9.72593 -1.08088,1.67128 -1.20533,3.65294 1.33878,3.5162 2.84919,0.73549 -2.04956,4.34004 1.09128,5.11212 2.47421,0.45218 1.93921,-2.91505 4.17933,-2.89838 7.15919,-4.10895 12.40415,-11.00767 19.26755,-15.4065 1.0396,-1.11751 -1.09519,-3.41923 1.01852,-3.03089 2.66658,-2.74635 0.0357,-7.74096 3.86624,-9.90855 3.2061,-2.94897 7.34842,-5.70774 7.77666,-10.44898 0.38146,-1.52063 1.7196,-3.37931 3.05168,-1.32642 2.17687,0.8633 0.94919,3.49889 2.35404,4.6756 1.71193,0.24923 4.57641,1.48422 5.78117,0.0143 0.13471,-3.26947 1.39967,-6.48013 4.62494,-7.90137 -2.45253,-2.83011 -2.48239,-3.71136 1.54078,-4.15465 2.22037,-0.30258 6.42128,2.28235 7.36093,-0.80676 -0.38416,-1.99752 -2.2708,-4.84478 -0.79507,-6.59574 1.98763,-1.72822 1.71451,-5.74479 -0.0806,-7.57398 -1.64903,-0.87277 -2.46157,-2.39992 -2.94386,-4.01305 -1.97977,-0.71727 -3.56309,-2.09072 -3.73112,-4.39629 -0.75,-3.57879 0.0215,-7.47395 1.34461,-10.82054 2.32467,-2.2239 3.90927,3.13324 6.6425,1.85128 2.52455,-1.08901 -0.40563,-4.20844 -0.81976,-5.81496 -0.96292,-2.70383 -4.96738,-5.74112 -1.28485,-7.83771 1.72685,-2.09358 1.4947,-5.22981 4.18713,-6.68017 3.11993,-2.66052 7.46241,-3.66153 9.93583,-7.06213 1.58437,0.0811 3.55053,0.2629 3.7766,-1.97339 0.65347,-3.13546 2.8154,-6.39221 2.53462,-9.5305 -2.53718,0.22497 -3.19953,-4.02688 -6.09557,-3.6207 -4.37248,-0.34393 -7.79605,3.63441 -12.28467,2.53332 -1.85916,-0.40651 -2.86119,1.98951 -4.63533,0.72233 -2.93652,-0.36928 -3.85227,-3.06813 -3.86364,-5.66815 -0.24678,-2.91093 -2.16229,-5.46778 -5.08224,-5.87601 -2.12887,-2.13632 -3.28276,-5.60294 -6.83997,-5.84094 -2.43548,-0.0609 -3.58196,-1.86194 -3.6233,-4.05591 -1.05189,-1.94461 -4.19173,-1.27016 -4.89256,-3.73505 -1.50917,-3.99872 -5.32756,-6.13226 -7.33105,-9.78772 -1.79977,-1.84928 -4.22725,-3.57506 -6.89194,-3.66877 z"
     id="下関市"
     inkscape:connector-curvature="0" />
  <path
     style="fill:#616161;fill-opacity:1;stroke:none;stroke-width:3.0236218;stroke-miterlimit:4;stroke-dasharray:none;stroke-opacity:1"
     d="m 131.80332,130.49864 c -1.30406,1.86548 -3.21929,3.04204 -4.9835,4.05591 -0.92244,1.55615 -1.35238,3.76784 -3.45051,3.57004 -1.73051,3.502 -3.68212,6.94019 -6.73735,9.56427 -2.08108,2.37806 -5.72616,4.79419 -8.6042,2.18255 -3.15636,-1.02106 -7.02602,0.0165 -7.80783,3.64669 -2.962385,5.11017 -3.868235,11.17551 -6.452825,16.35098 -1.73118,-0.50301 -3.43665,0.0626 -4.40409,1.64601 -3.88538,3.03107 -10.8383,4.2699 -11.30641,10.13329 -0.89616,2.27905 -4.24849,3.70002 -1.42067,6.19542 1.04877,2.7706 3.8182,5.49592 3.72794,8.46538 -2.66691,1.70177 -4.92027,-0.73894 -6.93091,-2.03315 -2.27165,0.94729 -0.34197,4.73686 -2.1241,6.38657 -1.63998,2.59453 -0.29035,6.4079 1.63042,8.47039 1.50513,0.59679 3.59133,0.78843 2.89579,2.90098 0.96783,2.02143 3.95286,2.85664 3.11533,5.69673 -0.32197,3.38586 2.47254,6.98625 5.76039,7.51813 2.49294,-0.37638 4.8406,-1.118 6.83218,-2.46837 5.17025,-0.13049 4.89076,-6.59829 8.40414,-9.11087 3.746115,-3.64111 9.080805,2.79123 12.699055,-1.40515 3.07217,-1.42904 5.86457,-3.52259 7.05566,-6.76774 1.35175,-1.63768 3.98861,-4.26071 5.86302,-1.93702 2.24045,1.64663 5.18583,0.30469 5.56812,-2.4112 1.05928,-2.62837 2.61581,-7.86555 6.44633,-6.36189 1.8484,1.13359 4.10512,1.42217 5.55513,-0.35597 2.47597,0.44033 3.53461,2.73062 1.93701,4.78603 1.48641,2.29039 4.87396,2.55015 6.74774,4.60806 2.95128,1.01135 7.06757,1.51106 9.62532,-0.58462 1.47571,-1.66977 -2.97611,-4.09892 0.0117,-4.57557 2.43765,-0.95323 0.3871,-4.63829 3.07897,-5.53434 1.55986,-1.47215 1.79573,-4.50815 4.45734,-4.40278 0.78928,-1.33341 -0.0306,-3.29437 1.28356,-4.60416 0.55723,-1.81007 -0.23604,-3.95921 1.57402,-5.35036 2.28908,-2.98855 -5.60623,-3.25434 -1.94428,-7.65143 0.70967,-4.73463 1.12674,-9.93277 0.22345,-14.46982 -4.20458,1.00363 -6.13858,-3.79325 -6.86336,-7.06992 0.63351,-2.55945 0.40357,-5.28522 -1.83955,-7.06602 -2.15747,-5.28048 -7.41864,3.39876 -9.92416,-1.02373 -2.05155,-1.6017 0.1319,-4.93296 -2.61517,-6.16442 -2.32279,-1.58082 -6.18217,-0.76827 -6.76463,2.21893 -1.67895,3.58866 -3.13849,1.59336 -4.39628,-1.39398 -1.49011,-2.22481 -3.26351,-4.96407 -5.92278,-5.65385 z"
     id="美祢市"
     inkscape:connector-curvature="0" />
  <path
     style="fill:#616161;fill-opacity:1;stroke:none;stroke-width:3.0236218;stroke-miterlimit:4;stroke-dasharray:none;stroke-opacity:1"
     d="m 102.60905,212.54973 c -5.048285,0.94952 -5.189425,7.26854 -8.760105,9.88256 -1.56505,0.27264 -3.09098,0.41059 -4.11178,1.60834 -2.04777,0.23319 -4.10768,1.64249 -6.01372,1.61483 -2.05996,-0.86697 -3.50489,-4.53785 -5.96565,-3.68177 -1.34323,2.3942 1.83684,5.36007 0.54045,7.49734 -3.00465,1.47737 -7.34795,-1.52683 -9.80461,1.06789 0.0974,1.37079 3.11605,2.78978 0.48847,3.58953 -2.64259,1.50597 -4.60512,5.5742 -2.93735,8.3158 3.12273,1.82156 7.94235,-1.1057 9.41798,3.37277 3.3293,3.84735 5.85135,8.71426 9.66249,12.00775 1.21826,-0.36488 -0.76397,-2.94586 1.13934,-1.92663 1.26224,0.68836 4.00727,-0.53628 4.5353,0.82625 -0.67754,4.44133 5.52539,6.08992 6.31772,10.13979 0.82389,0.57674 -0.54805,1.75236 0.83535,2.49045 -1.35962,0.32882 -0.84653,2.5434 -2.75808,2.33456 -3.02315,0.1482 -2.2571,3.6425 -0.58591,5.03677 2.14166,2.13258 3.77294,5.90943 6.942605,6.4957 1.46221,-0.73275 0.004,-3.42736 2.15527,-3.54276 3.46557,-0.34233 1.25018,-4.91497 -0.34817,-6.20729 -1.81735,-0.96558 -0.45183,-4.20506 -0.86893,-5.91605 0.14619,-3.71789 -0.32571,-8.49923 3.67897,-10.28033 1.94313,-1.89577 3.14214,-4.43955 5.72271,-5.68244 1.82,-1.71805 4.61502,-4.93895 0.8613,-6.31141 -1.67264,-1.73584 -4.14642,-3.25623 -6.42552,-2.34086 -0.21062,-2.01912 -3.22819,-1.65964 -3.82077,-3.74542 -3.423775,-2.62711 1.68636,-5.01647 3.65968,-6.83608 1.66699,-1.72653 6.82711,-2.11104 5.05096,-5.44617 -0.73571,-1.83132 -1.42785,-3.86556 0.54444,-4.99112 1.73833,-3.40777 -0.33022,-7.87494 -4.28976,-8.32359 -1.57664,-0.47108 -3.19869,-1.06569 -4.86268,-1.04841 z"
     id="山陽小野田市"
     inkscape:connector-curvature="0" />
  <path
     style="fill:#616161;fill-opacity:1;stroke:none;stroke-width:3.0236218;stroke-miterlimit:4;stroke-dasharray:none;stroke-opacity:1"
     d="m 136.13206,194.73202 c -4.57145,0.70012 -3.70689,7.12522 -6.8036,9.35121 -2.8972,0.7826 -5.99957,-2.50761 -8.4587,0.24424 -2.13148,1.98335 -2.36375,5.45359 -5.48627,6.4944 -1.17274,1.19104 -5.83529,1.94361 -4.31574,4.34433 1.70337,2.38904 1.8088,6.44417 -0.50407,8.39244 -0.56621,2.0408 2.58482,4.83535 0.75673,6.12353 -3.40523,1.96189 -8.3079,3.73993 -9.53372,7.79157 0.39469,2.3984 2.91895,2.97808 4.29366,4.28196 1.15204,1.59916 3.57436,0.0897 4.84189,1.78632 1.87548,1.72254 5.6728,3.28294 2.83862,5.94227 -1.84165,2.92646 -5.30772,4.26782 -6.85686,7.46486 -2.03055,1.01529 -3.81472,2.58884 -3.73243,5.16278 -0.11161,3.61817 -1.65903,7.77945 -0.21435,11.15831 2.89106,0.54841 1.69945,6.86074 5.54083,5.24463 1.88067,-0.0885 1.28776,-3.0108 3.35048,-2.115 1.09649,0.42545 3.53796,0.37155 3.69475,-0.28061 0.25621,2.36826 -3.90371,3.42699 -2.92046,5.5876 3.55254,1.03541 4.07664,-3.37109 5.61748,-5.23164 1.2412,0.40683 3.97288,2.55313 3.0042,3.13899 -2.07114,0.30817 -5.90825,2.58513 -3.82785,4.90919 2.15492,-0.15498 4.02345,-3.45092 6.05009,-2.79965 1.17494,1.33213 0.19302,1.34631 -1.09258,1.00813 -2.25784,0.6998 0.83152,3.05129 2.01887,3.179 3.24417,2.00252 7.28142,-0.29113 8.34567,-3.54536 2.72933,-2.21405 6.66243,-2.50311 8.89262,-5.53043 1.92978,-2.64885 5.64047,0.36883 7.53371,-2.46187 1.51319,-2.058 4.11978,-2.83036 6.06179,-4.0962 -0.3182,-0.90845 -1.14437,-1.44509 -0.67165,-2.58139 -0.28348,-1.81743 -2.56029,-4.16425 0.24164,-5.16408 1.37549,0.1024 2.59705,-0.76259 2.16956,-2.42809 -1.11175,-2.81112 -4.68413,-4.81605 -7.41153,-2.75213 -2.83515,0.48854 -6.01506,2.8701 -8.81993,2.0441 -1.72883,-1.09221 -5.61706,0.6459 -5.37064,-2.92697 -0.22562,-2.22273 1.34929,-3.69924 3.07896,-4.59765 0.57172,-2.13515 0.85305,-4.51573 2.77886,-6.03321 1.81907,-1.8999 0.67493,-5.48222 3.93769,-6.08257 3.74323,-1.88618 3.56944,-6.9192 6.97509,-9.2174 1.23579,-1.79416 -0.97996,-4.70299 1.79151,-5.62528 2.51063,-2.33769 -1.29251,-5.78787 -1.42905,-7.87149 1.98363,-0.73896 5.69588,0.98533 6.67238,-1.31603 -0.67579,-1.47793 2.18319,-0.53062 2.43459,-2.00068 2.13275,-2.93839 -0.48335,-6.84158 -2.64375,-8.92379 -2.49387,-0.78955 -5.59298,0.87466 -7.68052,-1.40697 -1.86811,-1.85359 -5.06177,-1.99932 -6.73604,-3.82337 1.10257,-1.54769 1.4201,-5.13765 -1.43685,-4.49632 -2.56141,1.93311 -4.2028,-0.26229 -6.97508,-0.34168 z m -20.22112,79.39825 c -0.56729,2.59698 -0.24705,0.0976 0,0 z"
     id="宇部市"
     inkscape:connector-curvature="0" />
  <path
     style="fill:#616161;fill-opacity:1;stroke:none;stroke-width:3.0236218;stroke-miterlimit:4;stroke-dasharray:none;stroke-opacity:1"
     d="m 37.101205,91.090523 c -1.35527,0.64743 -0.32877,3.21001 -2.37483,3.55574 -2.71225,0.71051 -4.13463,3.3241 -2.8672,6.013717 0.25879,3.09712 4.58299,0.75056 5.65386,3.37517 3.01055,2.21598 7.89348,2.59187 10.36324,-0.65866 3.17075,0.77538 2.14838,5.86757 5.50706,6.81139 2.14932,1.04505 2.61728,4.22392 2.66583,5.97734 -5.51615,-1.1047 -12.18485,-1.05159 -16.73033,2.58659 0.33378,2.13923 3.79455,2.09565 4.09359,4.57947 2.08354,3.2332 5.48465,5.42111 6.88935,9.16933 0.85284,2.63255 5.21745,1.52814 4.87177,4.74316 0.69958,4.07542 6.89492,2.13099 8.26383,5.97475 0.75999,2.17823 2.67776,3.20463 4.75875,3.52846 3.65825,2.64565 0.75836,9.82098 6.13584,10.74519 1.9352,0.57547 3.14619,-1.84897 5.27841,-0.69504 4.54312,1.06255 8.15363,-3.92506 12.70039,-2.22023 2.14089,-0.0293 3.26053,4.46733 5.23683,2.48655 1.90227,-1.93414 2.988065,-4.67176 4.640525,-6.65939 2.6033,-1.2367 5.60521,-1.53394 7.93905,0.38585 3.93288,0.59962 6.46433,-3.70267 9.04462,-5.98514 2.36826,-1.91231 2.47045,-5.48453 4.50021,-7.42069 3.07724,0.85641 1.87569,-4.64737 4.78214,-4.18973 1.8332,-0.7783 3.48657,-4.33006 5.54603,-1.75384 3.054,1.95357 4.00022,6.24031 6.42035,8.23525 2.15135,-1.30412 1.59807,-5.19296 4.59506,-5.00948 2.14152,-0.82206 3.77822,1.42653 5.64736,1.21729 2.04753,-3.78196 0.0797,-9.1334 2.50994,-12.71988 -1.99306,-3.18118 -7.50112,-1.60665 -8.98485,-5.57071 -2.49261,0.0998 -5.35723,4.40756 -7.02965,0.79507 -1.76941,-2.22853 -0.0171,-6.62134 -3.01531,-7.74807 -1.13582,0.4702 -2.0347,2.24112 -2.01626,0.23125 -0.90371,-2.1777 -3.47595,-1.36184 -4.74965,-0.10523 -1.92438,-0.4067 -3.55928,0.1445 -4.10399,2.14488 -2.97315,-0.38307 -5.18854,-4.28093 -8.20277,-3.69995 -0.95629,1.92574 0.39547,4.55533 -1.63952,6.1917 -0.85143,2.24976 -5.42419,1.67467 -3.95328,-1.13155 0.0209,-2.51681 -1.86427,-5.42215 -3.72463,-6.45023 -1.36354,3.741 -4.15746,6.74518 -8.195755,7.43329 -2.85369,1.83412 -6.39272,-0.56526 -8.38517,-2.73431 -1.12613,-4.03122 -1.10326,-8.84529 -3.55965,-12.28337 -1.45392,1.11344 -3.74054,0.76854 -5.37454,1.63302 -4.00419,-1.62114 -7.74763,-5.359297 -12.29376,-4.976997 -1.10364,1.46985 -2.56452,0.67262 -4.00655,0.81846 -3.29278,1.52874 -6.33684,4.210267 -10.27289,3.059817 -2.62603,-0.71072 -7.56466,1.08063 -7.02516,-3.067617 -1.05644,-3.97263 -6.07671,-4.85083 -9.25118,-6.59703 -0.0944,-0.018 -0.19139,-0.022 -0.28711,-0.0156 z"
     id="長門市"
     inkscape:connector-curvature="0" />
  <path
     style="fill:#616161;fill-opacity:1;stroke:none;stroke-width:3.0236218;stroke-miterlimit:4;stroke-dasharray:none;stroke-opacity:1"
     d="m 260.29608,5e-6 c -1.71154,0.906794 -3.38419,1.943604 -5.2888,2.254008 -0.41896,1.335649 1.54603,2.917376 -0.26242,4.010446 -1.7606,3.01917 -6.02102,2.316126 -7.88319,4.927639 0.82512,0.873855 1.71519,2.940267 0.35467,3.815575 -3.03717,-0.756087 -3.50665,-4.125316 -2.1098,-6.529479 -1.24275,-3.19655 -6.10286,-3.752404 -9.04981,-2.708707 -3.35587,1.265329 -4.11819,5.224641 -6.23458,7.57009 -0.24634,1.234367 -0.95361,5.633253 1.33162,4.400187 0.77766,0.451348 2.12895,1.200162 2.31507,0.02208 3.12094,1.331542 -0.67899,3.645945 -2.45798,3.583029 -1.18661,0.515285 -2.67323,2.887427 -3.65837,0.572921 0.0548,-1.842739 -1.05455,-0.692319 -1.89935,-0.235144 -2.35878,0.17623 -5.36743,0.0932 -6.07348,3.016603 -1.04307,1.014636 -1.65924,4.711876 0.79897,3.293321 2.32633,-1.120776 5.93574,0.150068 7.18295,2.373529 0.21757,3.079008 3.56553,3.302554 5.24982,5.118612 0.7969,3.517956 -3.38439,6.882955 -2.40211,10.365839 2.35091,0.988156 3.39033,4.011266 5.81106,4.830206 1.32399,1.97536 1.47697,5.94741 4.84059,5.24463 3.84965,-0.17165 4.27693,5.04617 6.25926,7.32715 -3.58744,1.63487 -6.98415,4.98747 -10.91407,5.45639 -3.92775,-1.04689 -3.86753,4.84339 -7.36483,5.10562 -2.58846,0.59661 -6.23094,2.653303 -7.98452,-0.54304 -2.60965,-2.94378 -4.4275,-6.42754 -5.24333,-10.18396 -2.29254,-2.14745 -3.97232,1.89101 -5.69153,2.69831 -3.38776,-0.0599 -4.62213,3.44926 -5.18616,6.13065 -1.50248,-0.16548 -2.16599,1.36322 -2.95555,2.09421 -3.86079,-0.51245 -7.69846,-4.42147 -11.26544,-1.2064 -2.02451,1.06488 -4.45377,2.811623 -6.31842,0.62179 -2.37755,0.538 1.59848,3.079723 0.47548,4.301453 -0.84868,1.70211 -2.6459,0.73532 -3.78179,1.29005 0.50515,3.78394 -3.22302,6.59395 -6.45673,7.78834 -1.31128,1.90266 3.78034,2.3116 0.83535,4.61585 -2.118,1.03954 -1.76088,3.05782 -0.50017,4.3716 -1.80574,-0.1265 -4.12953,-1.61332 -5.36285,0.63788 -1.05954,1.71683 -2.8103,3.32067 -4.77045,1.74215 -1.85318,-1.52774 -4.11189,1.81982 -1.64471,2.547607 1.97508,-0.15264 0.3717,3.41244 -0.48068,1.61354 -1.00122,-2.539637 -3.61029,-1.92826 -5.38753,-0.64438 -2.35968,0.85412 -3.66806,-3.068937 -6.32292,-2.247507 -4.12287,0.636837 -3.78082,5.515127 -4.67041,8.532747 -2.34769,1.69003 -4.96478,3.20528 -7.50773,4.55478 -4.97801,0.30978 -1.49011,9.40744 2.38652,6.36709 2.01259,-1.78997 3.45939,-1.67261 4.94193,0.39494 2.16393,1.97156 6.18554,1.53523 7.77795,3.84415 -2.97652,3.06261 -1.45877,8.15125 -2.44016,11.98285 -0.42817,2.52072 -1.4887,5.54481 1.29347,7.24245 2.92736,1.47847 7.30011,-4.76759 9.23904,0.30858 3.57386,2.61402 0.36746,7.20245 2.81393,10.38532 0.87603,2.48563 2.8393,3.89187 5.38884,3.75582 1.79352,5.77366 0.21394,11.9192 -0.43262,17.72417 0.92637,1.86874 3.77479,3.19632 5.7513,2.74638 1.07233,-1.97832 3.1259,-2.54511 4.76524,-3.87533 2.98846,-0.25412 5.98941,-1.04464 7.77926,-3.74802 2.15808,-1.7792 4.94139,-4.7939 7.93514,-4.01954 2.48709,2.93956 6.44793,-0.14968 6.55287,-3.28813 -0.0589,-2.44537 0.32651,-4.77193 2.02666,-6.75422 1.34594,-1.19244 0.96202,-3.77827 2.45407,-4.53661 1.77039,0.37632 1.74473,-1.23472 1.78112,-2.38911 1.51056,-2.34044 3.61083,-5.04693 6.38397,-5.77598 2.2835,0.83699 2.94741,-3.1955 4.05073,-4.40538 0.95665,-2.08112 3.74351,-5.36628 0.66645,-7.00627 -0.2664,-3.08099 0.22094,-6.45227 -1.2121,-9.44994 -0.4086,-3.54596 -5.44077,-2.05162 -6.40085,-4.74966 -0.51504,-2.55059 0.27749,-5.04453 2.63855,-6.27355 2.00499,-2.42877 -2.39578,-3.99031 -2.07733,-6.50609 -0.65774,-1.20487 -0.49478,-3.84892 1.14584,-3.83246 2.83442,3.0332 8.14172,-1.392077 10.96085,1.94611 2.78976,0.81232 6.01588,-0.2115 8.64837,-1.2147 1.95372,-4.351287 4.63089,-8.996337 8.3171,-12.209317 3.21065,-1.33882 0.50071,-6.73122 3.38426,-8.3041 3.51266,-0.11973 4.19402,-4.41511 2.73339,-6.901043 -0.78381,-2.89492 -1.13123,-7.47965 2.91007,-7.91566 1.62628,-0.011 3.08241,-0.46658 3.77401,-1.97859 2.91788,-3.27308 7.88777,-4.83493 9.83449,-8.82376 -0.20319,-2.17726 0.87521,-4.32134 -0.0637,-6.46582 0.48681,-1.692714 0.44099,-4.387255 0.1598,-5.45639 1.52966,0.331236 4.23473,1.123816 4.33003,-1.218593 1.14007,-1.079185 4.25884,-1.659766 2.56191,-3.806481 -2.7041,-3.89772 -0.50598,-9.639261 -3.53237,-13.261623 -2.01305,-0.581541 -4.95855,-0.437989 -5.4343,-3.149115 -0.85353,-3.473507 2.50229,-7.192145 0.84444,-10.473669 -1.97647,0.02522 -0.92695,-2.819485 -2.79185,-3.212773 C 259.8797,6.807697 259.49098,5.168343 258.38631,4.050719 258.6615,2.890839 262.34399,0.810791 260.29604,0 Z"
     id="萩市"
     inkscape:connector-curvature="0" />
  <path
     style="fill:#616161;fill-opacity:1;stroke:none;stroke-width:3.0236218;stroke-miterlimit:4;stroke-dasharray:none;stroke-opacity:1"
     d="m 221.09583,27.266359 c -1.32968,1.833942 -4.70937,4.292391 -2.32027,6.628214 0.85393,3.780042 -2.90324,5.816415 -4.81201,8.346975 -1.31801,3.16262 -5.60403,2.716863 -7.12709,5.821447 -2.3936,2.036195 -2.13631,6.564505 -5.31608,7.610365 -3.81169,0.19922 -7.9354,-0.35077 -11.35448,-1.73305 -1.83652,2.60136 -4.38289,6.16112 -3.15821,9.47462 -2.02427,1.16804 -0.21313,2.7564 1.29394,2.91917 0.35928,1.48942 2.24228,0.99855 3.03739,1.07699 0.33603,1.57597 -2.07027,3.84447 -0.6015,4.87048 3.78727,-2.19222 7.45322,1.63987 11.25445,1.07568 1.18895,-0.43775 0.17355,-2.7512 1.91623,-1.8097 1.55843,-0.77179 0.41797,-3.4351 2.36054,-4.25468 1.41121,-2.46067 4.67705,-1.07975 5.83704,-3.81298 0.83925,-1.66463 4.63466,-2.5647 3.88313,0.40403 1.13449,4.26016 3.70063,8.42241 6.97118,11.319413 3.68542,-0.656053 8.42562,-1.313433 9.78383,-5.422613 1.99799,-2.09838 5.30377,-0.7583 7.51163,-2.76197 1.96708,-1.36745 5.44978,-2.09351 6.26575,-4.31704 -1.2867,-2.93011 -3.04084,-7.12318 -7.02575,-6.21639 -3.07298,-0.10807 -1.7955,-4.89778 -4.62494,-5.70322 -1.77749,-1.64067 -3.15436,-4.458182 -5.41742,-5.142001 0.30525,-3.524037 4.16855,-7.154998 2.37353,-10.684129 -1.68429,-1.190168 -4.29687,-1.661019 -4.38589,-4.250787 -1.11709,-2.208173 -4.29635,-2.957814 -6.345,-3.438824 z"
     id="阿武町"
     inkscape:connector-curvature="0" />
  <path
     style="fill:#616161;fill-opacity:1;stroke:none;stroke-width:3.0236218;stroke-miterlimit:4;stroke-dasharray:none;stroke-opacity:1"
     d="m 251.55547,66.4848 c -3.42151,-0.53451 -4.7168,3.21924 -3.85845,5.93837 0.40516,2.339033 2.03832,4.517123 0.46379,6.888043 -0.86654,1.99923 -4.41815,0.98148 -4.26637,3.82597 -0.43062,2.56289 -0.10317,5.86552 -2.91008,7.02965 -3.08097,3.43736 -6.11512,7.45784 -7.4025,11.819577 -3.56294,0.75601 -7.75415,1.71794 -10.95955,-0.43392 -3.2026,-0.40658 -6.75297,0.96215 -9.65651,-0.17148 -1.69343,2.01958 0.82421,5.11799 1.81101,7.02315 3.17451,2.63516 -2.82487,3.52042 -2.73859,6.55936 -0.9517,2.99134 2.17526,4.22748 4.55479,4.54829 2.98725,1.71015 3.03747,6.15545 3.11533,9.27846 -0.67539,1.92068 0.83872,3.55343 2.36704,4.46774 -2.27522,3.28405 -3.44666,7.96182 -6.45543,10.46717 -2.73069,-0.98064 -5.0111,2.43458 -6.35929,4.42228 -0.99656,1.03492 0.5915,3.42195 -1.71486,2.82303 -2.44266,0.29921 -1.35942,3.80445 -3.19069,5.00818 -2.78551,2.92748 -0.48588,8.69626 -4.5327,10.53993 -2.6795,1.30559 -5.00985,-2.18224 -7.5662,-0.12992 -3.84829,1.95826 -6.01393,7.14198 -10.89978,6.69577 -1.69459,0.63028 -3.12521,1.70406 -4.58207,2.69961 -0.62995,1.75925 -1.90364,2.30914 -3.56484,2.18645 -3.15137,1.35013 -1.78336,5.28861 -3.54406,7.48825 -0.44539,1.39651 1.16965,4.0026 -1.42385,3.48559 -2.32677,0.84384 -2.46333,3.98528 -4.48853,5.1446 -0.21401,2.07817 -0.60248,4.21267 -2.61127,5.32518 -0.66031,1.37824 1.83333,2.5726 0.0896,3.90391 -2.69174,3.43069 3.63879,7.01701 0.47288,10.49185 -0.41155,1.45648 -2.48948,1.82799 -1.86686,3.43363 -2.18118,0.75288 -5.21351,-0.59221 -6.93221,0.77689 1.54176,2.27121 3.04114,6.25976 0.0507,7.98581 -0.92833,1.9138 0.64461,4.68657 -1.90584,5.84613 -2.65471,2.62988 -2.6664,7.55718 -6.93221,8.49248 -2.13408,1.32694 -0.70279,4.55822 -2.95814,5.92928 -2.14855,1.37618 -2.06109,3.96702 -2.82173,5.98514 -2.85646,0.41457 -4.24007,6.10052 -0.82626,6.44373 2.62741,-0.62537 5.1148,1.36513 7.72339,-0.0675 3.34444,-0.366 7.19961,-4.21159 9.87996,-0.96136 2.93486,2.83493 5.94949,-1.4349 7.36743,-3.77141 2.34071,-3.80294 2.34948,-8.32054 1.94871,-12.56918 -0.28944,-2.43876 4.20727,-4.45354 4.26248,-1.20041 0.24671,2.72074 -0.60281,5.64436 -0.0208,8.22097 2.10676,0.97501 6.96701,1.18619 3.46481,3.30241 -1.42644,2.03448 -3.3666,5.27093 -2.23193,7.65843 3.09472,0.92487 1.66125,-3.32965 3.1816,-4.73537 0.94563,-2.05714 5.03574,-3.84459 5.53953,-0.54174 0.12087,1.88191 2.55849,4.98958 -0.13121,5.66425 -1.74856,1.18953 0.12232,2.16045 1.45634,1.95002 1.37966,2.03487 3.24171,-0.3326 3.51937,-1.97859 1.82241,-1.25274 2.84758,2.22152 4.53659,1.98898 2.04948,-1.7489 -2.2352,-4.28141 -1.39527,-5.6006 2.26882,-1.46445 6.4089,-1.47493 7.48434,-4.20921 -0.20914,-1.43932 -1.89941,-2.48177 -3.07636,-1.90714 -1.55388,-2.13227 -1.13275,-5.452 1.40437,-6.58664 0.2633,-2.11052 -2.55501,-3.28336 -4.33133,-3.48169 -0.0271,-2.66133 -2.56212,-6.30926 1.21478,-7.21606 3.59687,-1.76264 6.86268,-4.40246 7.86491,-8.46067 1.00421,-3.05878 5.05941,-5.45 7.49863,-2.419 1.68944,3.5859 4.54278,3.16208 7.59088,1.31473 4.02339,-0.55754 6.04172,-3.25729 6.83088,-7.05173 0.82273,-2.45823 1.88543,-5.3961 4.92634,-5.35246 1.30419,-1.32388 -0.52946,-3.68036 1.17052,-5.09133 1.46352,-1.41052 1.29976,-3.62881 1.25498,-5.25762 3.97129,-0.0514 8.10832,1.33674 11.4792,3.39206 0.80234,2.27536 3.83271,-1.02287 3.57263,-2.64505 1.79475,-0.39967 -0.22457,-2.56891 1.73955,-3.21668 2.16632,-1.26583 5.58712,-0.5057 7.2479,1.31084 1.20247,2.3082 -1.37126,4.8377 -0.79117,6.91922 3.71318,-0.0925 8.52206,1.88341 11.31291,-1.53299 3.32197,-1.51847 6.41779,4.32151 9.38369,0.94708 3.06457,-2.15106 -0.1408,-6.65765 1.30044,-9.21351 2.95774,0.56461 5.30932,-3.86063 3.53236,-5.94487 -2.26999,0.18161 -0.1652,-2.14783 -0.6002,-3.34788 0.47695,-3.39137 4.68928,-0.11757 6.76202,-1.6603 3.96061,-0.55044 1.50205,-3.65806 0.36766,-5.85522 -2.58119,-5.35441 -2.66378,-11.66298 -5.31738,-16.88233 0.34869,-3.26459 4.4454,-4.45093 4.5327,-7.8468 1.52322,-2.68685 -2.2772,-5.16745 -3.03739,-7.57659 -0.7643,-2.03245 1.48143,-4.13238 -0.0143,-6.26315 -0.51869,-2.56473 -1.24266,-6.5158 1.2004,-8.19239 4.02785,-0.7472 0.52333,-6.29232 3.75192,-8.07415 3.6439,-1.78237 3.38126,-4.73452 1.55489,-7.91118 -1.44909,-2.24429 -0.67648,-4.4513 1.07977,-6.1663 1.02596,-2.34138 2.98813,-3.99909 4.43916,-5.87212 1.1185,-3.74768 2.91234,-7.915477 2.36053,-11.777997 -3.39199,-1.62189 -8.25842,1.37549 -10.84392,-1.9591 -2.64507,0.2858 -3.42004,5.50306 -6.6542,3.49988 -3.17674,-1.75055 -6.684,2.05822 -9.48762,-0.87172 -2.67566,-1.24105 -3.85257,-4.36033 -2.61257,-6.94651 -0.0599,-3.14578 -0.47334,-6.28629 -0.31309,-9.42006 -0.42184,-2.20127 -2.93279,-1.5019 -4.26118,-1.3693 -0.73891,-3.633493 -1.49251,-9.768663 -6.57495,-9.381093 z"
     id="山口市"
     inkscape:connector-curvature="0" />
  <path
     style="fill:#616161;fill-opacity:1;stroke:none;stroke-width:3.0236218;stroke-miterlimit:4;stroke-dasharray:none;stroke-opacity:1"
     d="m 245.59891,197.64729 c -1.97683,-0.29413 -2.79076,1.27986 -3.0205,2.88669 -1.10711,1.43175 -2.52355,4.20268 -4.46645,4.12477 -2.41606,-2.87956 -6.77541,-3.64672 -10.30478,-4.48723 -2.22547,0.39859 0.0153,3.43601 -1.74344,4.61065 -2.09677,1.65778 -1.50603,4.19164 -1.24458,6.36709 -1.83327,0.42165 -4.28735,0.27069 -4.76005,2.76587 -1.35397,3.8051 -2.80549,8.21755 -7.35703,9.11217 -2.40094,1.29371 -6.0365,2.67474 -7.68052,-0.53265 -1.08719,-2.08067 -3.60348,-3.12081 -5.33556,-1.10817 -3.38481,3.33602 -4.16608,8.81205 -9.10828,10.60748 -3.49205,1.04622 -4.36196,6.12845 -1.42385,8.13782 3.09761,1.00166 4.36356,5.64697 7.62595,5.90069 0.67033,-0.51174 1.9165,1.80294 3.22057,1.68109 2.6918,0.53148 7.49694,2.90519 4.99909,6.20339 -1.32842,1.62684 0.67915,4.02301 2.09941,2.05394 1.90298,-1.2709 1.13463,2.53836 3.19459,2.07603 6.32769,0.92009 10.81086,-4.87223 15.1025,-8.56263 2.23465,-1.74445 2.37652,-5.203 5.63827,-5.6006 1.62047,-1.05254 2.58304,-0.0313 2.37483,1.63952 0.34097,2.40279 2.33325,5.72426 3.43285,1.46731 1.63034,-3.18293 5.30086,-8.28494 9.42084,-6.23386 1.33253,2.98064 5.17216,0.10193 7.19853,-0.56382 1.91179,-1.29275 -0.84186,-2.67515 -1.85127,-3.0335 -0.71343,-2.57061 2.49652,-7.43758 -1.7402,-7.27642 -3.06487,-0.0213 -7.73669,-2.13728 -6.16637,-5.86048 2.00542,-0.14549 2.40626,-2.04935 1.22639,-3.53756 -2.28676,-3.06258 3.20693,-5.2278 1.14325,-8.40544 -2.35876,-3.8438 3.48665,-5.42018 4.10658,-8.85883 1.52429,-3.2089 -1.20546,-6.2139 -4.58077,-5.57332 z"
     id="防府市"
     inkscape:connector-curvature="0" />
  <path
     style="fill:#616161;fill-opacity:1;stroke:none;stroke-width:3.0236218;stroke-miterlimit:4;stroke-dasharray:none;stroke-opacity:1"
     d="m 285.90213,122.74147 c -3.09391,1.15215 -5.5325,4.10738 -4.75355,7.58308 0.54946,2.76074 -3.49006,2.15569 -3.51677,4.86268 -1.31553,3.37168 1.73515,6.62699 0.83015,9.85658 -1.49942,3.8731 5.28228,6.90331 2.28519,10.69062 -0.0569,3.31973 -6.06139,4.85867 -3.52587,8.43922 2.39131,5.68526 2.47791,12.23661 5.78637,17.63583 1.26762,1.46592 0.81955,3.16934 -1.16793,3.48169 -2.08952,1.53726 -5.51335,-0.47138 -7.01146,1.69278 -0.46197,1.28479 -0.36449,2.98642 0.88732,3.57134 0.56364,2.69405 -1.222,5.56369 -3.88573,6.00722 -1.37782,3.29428 1.25103,8.2392 -3.08612,10.03842 -2.34041,1.11771 -5.83738,-4.33174 -8.27746,-1.49137 -1.86842,3.21573 -6.29719,0.45356 -9.26287,1.12635 -4.01329,-0.46679 -7.5598,4.2839 -4.47294,7.61036 -0.55464,2.22744 -3.09642,4.17524 -1.56157,6.73864 0.61726,1.41129 1.23444,3.26167 -0.9029,3.31671 -2.8236,2.029 1.32366,5.53998 3.6285,5.63956 1.80681,0.0603 4.8044,0.24173 3.93639,2.8789 -0.2378,2.04217 -0.8426,5.11235 1.80191,5.66945 0.74231,1.04708 1.76173,4.10588 3.30112,2.04874 0.59995,-1.43665 -0.12657,-4.01322 2.39951,-3.28942 2.17491,-0.6034 1.80018,1.05521 1.41086,2.48915 0.95305,2.07089 3.55737,-0.48503 3.15692,-2.13579 0.0459,-1.46642 1.98479,-0.23082 2.31636,-1.55117 3.70688,0.61287 7.17465,-1.12834 10.45548,-2.44108 1.05284,-0.96265 0.0148,-3.14755 1.6642,-1.48622 0.94199,0.12823 1.58198,-0.26614 1.98379,0.7626 0.93218,0.45477 3.56879,-0.83452 1.57196,0.55083 -2.07017,1.16174 -7.05313,4.53325 -3.13483,6.63861 2.56711,0.95103 3.97719,-2.81962 5.1485,-3.48819 1.03934,1.30967 2.57581,0.39557 3.00101,-0.66646 -0.7701,2.01234 2.79656,1.40579 2.8698,-0.23515 0.005,3.62913 5.43097,-1.91613 5.00948,1.98509 -2.00874,0.65289 1.0779,1.7262 -0.37285,2.79445 -0.44351,1.01802 -3.8265,4.09136 -1.58885,4.39759 1.62822,-0.72591 2.98246,-4.34246 4.93544,-2.15397 1.89955,1.67817 5.07758,3.07476 5.90849,5.46288 -0.45765,1.20675 -1.56676,2.69335 -2.38652,1.07179 -1.98691,-0.41526 -1.59473,3.21897 -3.85845,2.55801 -2.51043,0.30399 -2.92471,3.66037 -4.93543,4.96661 -1.91857,1.46165 -1.62119,3.77071 -1.94222,5.76168 -1.19756,1.13181 -4.69937,3.56143 -1.94481,4.99001 2.42189,0.75207 5.78166,-0.019 7.20373,-1.86687 -0.69282,-0.81964 -3.90169,-3.2179 -1.07829,-3.64928 4.85208,-0.26341 9.07344,-3.73709 10.81145,-8.08066 3.47262,-0.88797 1.01395,-6.04929 4.2209,-7.49474 2.8023,-1.97767 5.50487,-4.19993 6.47622,-7.57398 3.3536,-2.79227 0.093,-6.85782 -1.07309,-10.07354 -0.96586,-2.01356 -2.46985,-3.67968 -4.078,-5.20176 1.22601,-2.57604 3.29234,-4.24314 5.76428,-5.38363 1.97568,-2.04963 4.44508,-4.25528 7.50774,-2.89319 2.82031,0.36447 0.24453,3.71555 -0.44691,4.98351 -1.32806,0.51673 -2.11176,2.47161 -0.1442,2.69181 2.84978,0.95789 6.73886,0.62337 9.03166,1.98379 -1.0378,1.40582 -1.3818,3.36758 0.5794,4.2326 1.8921,1.34144 1.49,4.34035 4.243,4.54439 1.1031,2.27766 -3.3002,3.38055 -1.7825,5.86302 1.2374,2.29007 1.2051,4.75488 -0.391,6.81919 0.4317,1.59093 2.1408,2.82942 1.5863,4.84189 -0.6936,2.21736 1.1988,4.09902 3.318,2.91268 2.5114,-0.68165 6.9926,-1.25489 6.2241,-4.94323 -0.648,-1.57756 0.1845,-4.0488 2.2333,-2.81524 2.003,0.90988 4.5188,2.72024 6.2982,0.52225 3.3056,-0.51963 7.0578,2.16298 10.0969,0.72103 2.3994,-3.97849 3.0647,-8.70068 1.3303,-13.07585 0.093,-1.6258 -1.6337,-3.37453 -2.8594,-1.54727 -0.9757,1.68941 -2.2524,1.33089 -3.3336,0.11952 -1.3669,-0.93911 -3.7659,1.67767 -3.7766,-1.09388 -0.4606,-1.31891 -1.7876,-1.54971 -1.1341,-3.06597 -0.8705,-3.07801 -4.4011,-4.9675 -7.4987,-4.48074 -0.3201,-3.70996 -0.2733,-7.84887 -2.1578,-11.00501 0.3524,-2.18307 -4.0048,-3.5537 -1.4564,-5.31219 1.1575,-2.40873 -2.2954,-5.03561 -0.042,-7.33364 1.3309,-2.49079 -0.7789,-5.02123 -0.01,-7.34404 0.9163,-1.31752 2.3495,-2.85969 1.0354,-4.23649 -0.2934,-2.4873 0.4884,-6.30925 -3.0049,-6.78931 -3.7588,-1.02951 -2.9248,-6.05676 -2.7762,-9.04332 0.5034,-2.98599 -3.8315,-2.55784 -5.0849,-0.83534 -2.4078,1.92569 -3.7382,-2.21252 -5.9916,-2.55541 -2.08752,-1.0019 -5.82403,-1.12372 -4.88086,-4.52009 0.3893,-4.50088 -2.91998,-8.41194 -3.05559,-12.67403 0.31392,-3.75663 0.66183,-8.08294 -0.77428,-11.57924 -2.78034,-0.43284 -5.67717,2.2711 -8.44439,0.24098 -1.7568,-0.73965 -5.65697,-2.8576 -5.82927,0.62814 -1.00644,2.01463 -4.92741,1.21977 -5.37324,-1.02242 -1.97696,-2.68915 -6.55347,-2.55106 -6.89973,-6.47621 -1.32477,-2.60857 -6.33786,-2.03164 -5.28361,-5.92538 -0.22946,-1.67301 0.119,-5.0591 -2.00197,-5.5915 z"
     id="周南市"
     inkscape:connector-curvature="0" />
  <path
     style="fill:#616161;fill-opacity:1;stroke:none;stroke-width:3.0236218;stroke-miterlimit:4;stroke-dasharray:none;stroke-opacity:1"
     d="m 321.38165,215.00121 c -3.37323,0.91503 -5.33076,4.48557 -8.52625,5.88251 -2.57159,2.47357 1.52998,4.80178 2.25011,7.11928 1.48826,3.45082 4.33526,7.96419 0.84314,11.183 -0.92695,4.20676 -5.64921,5.56197 -7.77276,8.96537 -0.45107,1.73523 -1.50846,4.32629 -0.4534,5.80326 2.29233,0.3052 5.06685,0.005 6.59834,1.92792 1.32564,-0.47984 1.29027,2.09828 2.7178,2.48006 -0.77231,0.90413 -3.04271,3.24527 -0.38455,3.09455 3.67658,-1.15506 3.64202,5.15393 7.12449,4.04422 2.48016,-0.97152 1.45022,-4.50612 4.27806,-5.18746 3.16991,-2.37257 9.59041,-3.19713 9.06541,-8.32359 0.5187,-2.4529 -1.5974,-4.43496 -1.6447,-6.60483 2.6437,-2.45644 -0.2377,-5.61149 -0.048,-8.35607 2.1321,-0.77521 3.426,-4.06527 0.09,-3.69865 -0.4968,-1.89239 -1.1715,-4.07685 -3.1764,-5.1342 -2.27861,-0.96351 1.2373,-3.82155 -1.4862,-4.40929 -2.65075,-1.17535 -7.3167,1.21264 -8.6562,-2.1098 0.78835,-1.77029 4.04815,-3.65095 2.82693,-5.92798 -1.08501,-0.57205 -2.43235,-0.70635 -3.64539,-0.7483 z"
     id="下松市"
     inkscape:connector-curvature="0" />
  <path
     style="fill:#616161;fill-opacity:1;stroke:none;stroke-width:3.0236218;stroke-miterlimit:4;stroke-dasharray:none;stroke-opacity:1"
     d="m 376.84584,79.443733 c -2.531,1.59508 -6.2938,-1.61348 -8.0209,1.61353 -1.9451,2.00632 -6.2043,1.99042 -6.0631,5.60189 0.1922,3.31164 -1.7255,5.88627 -4.343,7.65064 -1.8134,2.35788 -5.8787,5.33857 -2.8549,8.252687 1.7573,3.52002 4.3035,6.8216 6.256,10.09247 -0.427,2.22148 0.3023,6.06316 -2.8256,6.11895 -4.2251,1.78386 -4.9121,7.55402 -8.9628,9.43435 -0.3877,2.75183 -0.582,6.78584 -3.722,7.78055 -1.1772,1.12421 0.3964,4.10223 -1.3303,4.37291 -3.9643,-3.61189 -7.7107,-8.16842 -12.7017,-10.19825 -2.68219,1.58782 -5.07546,9.29244 -8.02627,5.16851 -2.89181,-3.02197 -1.22872,2.13763 -2.26812,3.77867 -2.77219,2.15548 -0.8205,6.57366 -1.28095,9.56755 -0.24974,4.76953 1.16082,9.2677 3.07896,13.53635 -0.0783,1.99659 -1.28524,4.75027 1.18222,5.93708 3.11537,1.05611 6.08386,2.75172 8.46906,4.79642 1.628,-1.6669 4.1922,-3.68378 6.1112,-1.25367 0.9791,1.44218 -0.8465,3.45466 -0.083,5.19656 -0.3285,2.90833 1.4989,5.24483 4.3664,5.72531 2.6397,1.52429 -0.2591,6.38499 2.9322,7.54931 -3.8531,2.91817 -0.9453,8.14367 -2.7101,11.72993 -1.0386,2.21774 1.7639,4.67657 0.1287,6.83867 0.4798,1.75122 1.5811,3.32875 1.898,5.1563 2.518,2.52747 0.3875,7.28775 2.7971,9.86306 2.7734,0.45739 6.0221,2.12471 7.0712,4.74446 -0.3237,2.17044 1.1681,5.09715 3.6804,3.91561 1.3439,0.30107 2.7983,1.70813 3.9494,0.0455 2.1872,-2.3957 3.1161,1.97426 3.4453,3.49079 2.6372,5.11617 -2.7932,9.87975 -1.2601,15.00637 1.4883,2.72686 5.5605,1.42944 8.1313,1.72136 3.4118,-0.88203 5.4911,-4.27447 8.6432,-5.80326 3.5225,-2.26218 4.0402,-7.80259 8.1495,-9.13815 4.1683,-0.9447 6.7152,3.19448 10.601,3.46351 1.604,1.39878 1.4836,4.51732 4.1832,4.8276 2.2315,1.60832 3.607,4.89581 6.9751,4.11568 2.8152,-0.20197 7.3186,-0.41886 7.4298,3.49858 0.4248,3.18714 -2.0755,7.01876 -0.099,9.80721 2.5996,0.32337 3.2477,-3.61934 4.3053,-5.35765 3.0328,-6.55024 3.7055,-14.51514 0.7028,-21.1669 -1.0632,-1.88643 -2.2806,-4.81352 -1.4355,-6.75163 2.1822,-1.87883 10e-4,-5.56294 -0.3625,-7.92475 -0.9473,-3.70968 -3.0899,-7.84187 -1.9669,-11.62081 2.3866,-1.0717 5.8067,-0.80408 7.196,-3.34399 1.1991,1.04525 3.4366,2.10549 3.8285,-0.28581 0.799,-3.60123 3.7618,-7.05918 3.2505,-10.80494 -1.1716,-1.14521 -2.4441,-1.01524 -0.3612,-1.8266 1.7439,-1.78933 -2.3294,-3.28691 -1.3991,-5.51745 -0.058,-2.14723 -3.5187,-0.0362 -2.8789,-2.45148 -0.324,-1.83677 0.4796,-3.1946 1.6135,-4.31314 0.1329,-2.7231 -4.9703,-2.41883 -4.0975,0.51706 0.4983,2.63456 -0.9146,5.5501 -3.8247,5.66945 -2.7754,0.1034 -7.1248,2.24155 -7.5268,-1.75886 -1.0077,-2.05077 -2.224,-4.60552 0.085,-6.23475 1.5203,-2.88767 4.1567,-5.9511 4.1897,-9.21221 -3.0936,-1.16128 -6.6077,-0.26105 -9.5097,0.9172 -2.203,-0.22316 0.023,-4.57571 -2.9374,-3.635 -1.1401,0.34344 -1.8594,2.85729 -2.6372,0.4599 -0.4767,-1.87862 -3.6361,-1.26528 -2.7503,-3.52847 0.2981,-2.52506 1.7187,-5.5506 -1.1056,-7.28038 -2.9141,-2.2139 -1.4801,-5.83064 -0.6093,-8.6055 -0.3868,-1.81106 -3.1109,-2.55289 -4.1689,-2.75029 0.5178,-1.38631 -1.8413,-1.84233 -0.4391,-3.17639 0.2639,-3.70247 0.7524,-7.92141 -0.6691,-11.36748 -1.9199,-0.22846 -4.9492,1.54465 -5.9747,-1.24977 -0.8193,-2.36561 -1.1554,-5.40352 -4.0884,-6.10596 -1.8739,-0.70852 -1.4971,-4.22522 -4.1027,-3.1621 -1.0644,0.0552 -3.8233,1.46392 -2.6775,-0.79508 0.3456,-3.56091 2.6894,-7.25301 1.9058,-10.78156 -0.9623,-0.40195 -2.6273,-0.25107 -1.8578,-1.95911 1.1776,-2.65634 1.7699,-5.64636 -0.1039,-8.146897 0.3601,-2.81402 2.6068,-5.34877 2.9568,-8.33139 1.1729,-4.1783 -1.7611,-8.31587 -4.0286,-11.58316 -0.3947,-0.34782 -0.9123,-0.5911 -1.4485,-0.53914 z"
     id="岩国市"
     inkscape:connector-curvature="0" />
  <path
     style="fill:#616161;fill-opacity:1;stroke:none;stroke-width:3.0236218;stroke-miterlimit:4;stroke-dasharray:none;stroke-opacity:1"
     d="m 391.55084,237.63743 c -4.6531,0.75255 -5.2177,6.84363 -8.7601,9.29924 -1.8677,0.89714 -6.9408,4.77216 -5.5096,6.7906 -1.3023,4.0232 0.535,5.84369 0.9912,10.20995 0.1486,2.94891 -0.011,6.00081 -1.8188,8.38205 0.7523,2.45314 4.5617,1.01752 6.4749,1.28225 3.0573,-0.40901 8.2065,-0.43281 8.9952,3.30891 -0.892,1.03201 0.7048,2.45119 0.4612,2.77497 -2.9161,2.04203 1.6591,6.87961 -1.837,8.78608 -3.4018,1.77915 0.081,5.19994 1.5213,7.02119 3.3659,4.60911 8.9507,8.48473 8.4678,14.84464 0.3145,2.97135 3.3329,6.13866 6.3658,5.98774 1.9085,-1.67375 2.2218,-6.36844 -0.8561,-7.04784 -3.1774,-0.40053 0.083,-4.21562 -2.6983,-5.04456 -2.436,-1.0771 -4.6916,-3.82367 -4.5496,-6.4905 1.4409,-1.4097 -1.3687,-2.96632 0.1468,-4.55739 1.7011,-2.77313 -1.8976,-4.94094 -1.32,-7.80653 -0.1916,-3.28115 -2.0082,-7.09437 -2.2747,-9.77213 1.6914,1.09122 2.6062,-0.60531 2.4657,-2.04745 4.5721,0.0399 9.3917,0.88414 13.6826,-1.36799 2.2513,-0.6715 5.0665,-0.0446 6.1696,-2.76587 0.9587,-1.74546 4.0885,-4.97467 1.4069,-6.48921 -0.7076,-3.88563 2.3035,-8.82109 -0.7366,-12.05732 -3.6242,-2.03572 -9.2708,1.04734 -11.4779,-3.49468 -1.4182,-1.72681 -4.5202,-1.72657 -4.4651,-4.55869 -0.9005,-2.30818 -4.2047,-0.79697 -5.485,-2.93216 -1.3684,-1.43743 -3.3538,-2.372 -5.3602,-2.2553 z"
     id="柳井市"
     inkscape:connector-curvature="0"
     sodipodi:nodetypes="ccccccccccccccccccccccccccc" />
  <path
     style="fill:#616161;fill-opacity:1;stroke:none;stroke-width:3.0236218;stroke-miterlimit:4;stroke-dasharray:none;stroke-opacity:1"
     d="m 347.38524,245.89606 c -1.6857,1.73366 0.5067,5.91847 -2.6853,6.70876 -3.5107,0.92035 -7.2939,1.44713 -9.88,4.19622 -3.7513,2.27433 -8.94313,3.61631 -9.93021,8.59228 -0.4776,2.39322 3.8647,2.49751 5.47941,3.94573 2.3032,0.64685 2.2704,3.64409 3.9714,4.60675 0.9358,-0.20954 2.0465,-2.95019 2.0215,-0.71973 -0.698,3.61504 3.4354,4.69903 6.2086,4.19882 3.6957,-0.99968 4.208,3.71565 5.2394,6.36839 -1.0714,0.91768 -2.1937,3.6929 -0.065,4.06761 1.7292,-1.1002 3.5981,-5.10682 5.7825,-2.48136 3.8502,3.06583 7.7551,7.34595 12.5211,8.26903 1.1529,-1.78896 0.3552,-3.84587 -1.8383,-3.72854 -3.9987,-2.46074 -7.0021,-6.29837 -10.4594,-9.47463 -1.8941,-2.1803 -2.5024,-7.39602 1.5278,-7.21022 1.8866,-1.27588 1.4942,-4.79956 4.5067,-4.76785 2.5108,-0.46375 1.1168,-3.57483 3.1089,-4.84449 1.431,-2.184 4.8445,-1.82544 6.5009,-0.19617 3.1315,-0.10916 5.9005,-2.00935 7.692,-2.32676 0.1337,-2.08836 -0.3375,-1.5995 -1.0108,-6.18131 -0.8016,-2.3611 -4.2432,-1.39405 -5.9719,-1.57456 -2.4758,0.16742 -4.9225,-1.01989 -4.7392,-3.75321 -2.3802,-2.58582 -6.6203,-2.69666 -9.9216,-2.94905 -1.4021,0.91241 -2.8073,1.91083 -4.4529,0.5076 -1.1716,-0.45534 -2.3363,-1.14391 -3.6056,-1.25331 z"
     id="光市"
     inkscape:connector-curvature="0"
     sodipodi:nodetypes="ccccccccccccccccccccccccc" />
  <path
     style="fill:#616161;fill-opacity:1;stroke:none;stroke-width:3.0236218;stroke-miterlimit:4;stroke-dasharray:none;stroke-opacity:1"
     d="m 377.17064,261.51562 c -2.7472,0.52012 -5.643,2.88613 -8.4119,1.90714 -2.6984,-3.40727 -8.2215,0.79881 -6.8985,4.48853 -1.9672,0.94757 -5.4388,0.8563 -5.3459,3.95069 -0.221,2.41369 -4.1541,0.94882 -3.9845,3.72723 -0.6572,4.82836 4.9691,7.35687 7.4844,10.65389 1.9196,1.87571 4.1514,3.89976 6.8659,4.06017 -0.1916,1.11981 -0.629,4.11439 1.468,2.45927 1.982,-1.41078 5.8819,-2.08753 6.2515,-4.85229 -0.2683,-1.11267 2.0726,-0.4969 2.1072,-1.89284 2.3631,-4.69958 -0.3134,-9.91152 0.079,-14.72056 1.6476,-2.76616 2.3541,-6.75961 0.8808,-9.66041 -0.1427,-0.10257 -0.3224,-0.14846 -0.4963,-0.12082 z"
     id="田布施町"
     inkscape:connector-curvature="0" />
  <path
     style="fill:#616161;fill-opacity:1;stroke:none;stroke-width:3.0236218;stroke-miterlimit:4;stroke-dasharray:none;stroke-opacity:1"
     d="m 432.71664,177.59766 c -3.2149,-0.11914 -6.2259,1.24584 -9.0394,2.37093 -1.4315,-1.72396 -3.2453,-0.55623 -4.8536,0.008 -2.658,-0.20571 -4.0179,3.42004 -2.333,5.40802 0.287,4.30356 3.7904,3.73363 6.9616,2.99539 3.5765,-0.0561 5.5161,-3.58542 4.8175,-6.86003 -0.2386,-1.93827 3.6953,-1.64309 4.0611,-0.27282 2.2305,0.7435 4.144,-4.52357 0.3858,-3.64929 z"
     id="和木町"
     inkscape:connector-curvature="0" />
  <path
     style="fill:#616161;fill-opacity:1;stroke:none;stroke-width:3.02362204;stroke-miterlimit:4;stroke-dasharray:none;stroke-opacity:1"
     d="m 385.91664,273.18042 c -2.8659,0.1827 -5.8292,0.22345 -8.5855,1.06882 -0.5837,1.09014 0.04,2.54503 -0.025,3.75995 0.094,2.08494 0.62,4.2653 0.4659,6.28297 -1.0721,1.46361 -2.2104,3.07748 -1.8964,5.00012 0.4576,1.28015 -1.6701,1.06182 -1.4432,2.09081 0.688,0.3073 1.6681,-0.38048 2.1624,0.47906 0.6356,-0.009 0.908,-0.55149 1.5286,0.192 1.1778,0.90624 2.6171,1.47079 3.7862,2.33791 0.586,1.21131 0.4372,2.76374 1.236,3.85917 4.1667,2.12267 8.4695,3.96596 12.707,5.9417 0.1,1.6764 0.1216,3.47808 -1.1341,4.77091 -0.777,0.69176 -0.6138,1.99666 0.4662,2.23595 1.617,-0.071 3.3129,-0.45067 4.8081,-0.97742 0.081,-2.18148 0.6396,-4.8199 -1.1244,-6.53836 -3.5991,-4.37221 -7.415,-8.71453 -10.459,-13.44783 1.0903,-1.30213 3.0242,-1.93936 3.7489,-3.50091 -0.1558,-2.15254 -0.7258,-4.33415 -0.8125,-6.45062 1.2769,-0.28712 1.4232,-1.58123 -0.012,-1.32237 0.2325,-1.10119 1.4064,-2.74268 0.02,-3.53168 -1.5362,-1.31429 -3.3096,-2.49698 -5.4374,-2.25018 z"
     id="平生町"
     inkscape:connector-curvature="0" />
  <path
     style="fill:#616161;fill-opacity:1;stroke:none;stroke-width:3.02362204;stroke-miterlimit:4;stroke-dasharray:none;stroke-opacity:1"
     d="m 381.06624,311.71101 c -0.7851,0.87188 -0.8769,2.33891 -1.0431,3.42771 1.1681,1.40869 2.5886,2.67229 3.8523,4.02606 -0.4536,1.55983 -0.9508,3.23601 -2.4458,4.12225 -1.5567,1.43914 -3.7902,2.37106 -4.2647,4.63248 -0.7764,1.64898 -1.3233,3.51334 -2.3219,5.00268 -2.4614,0.93209 -5.1982,1.19435 -7.6339,2.14868 0.3639,1.11479 1.6379,1.9015 2.5056,2.74809 0.714,0.66942 1.18,-0.7621 1.852,-0.26411 0.9908,0.30663 1.6517,1.16337 2.4541,1.7036 1.1632,-0.79738 2.3824,-1.98768 2.185,-3.54454 0.728,-1.28393 1.8844,-2.4279 3.1325,-3.22255 0.963,-0.10728 2.3,0.21176 2.162,-1.26551 0.4733,-1.06615 0.1486,-2.898 1.6007,-3.20501 0.9782,-0.41157 2.4947,-0.34957 2.4157,-1.79324 0.5317,-1.12328 0.08,-3.50226 1.9097,-2.96802 1.1687,0.0329 2.6182,-0.24211 3.3764,0.90944 1.5332,-0.16581 3.1281,-0.93838 4.5183,-1.69947 0.4041,-1.12676 -1.4266,-0.94855 -2.0408,-1.48726 -0.5958,-0.47236 -0.7917,-2.14786 -1.8276,-1.46522 -0.6249,0.24214 0.1022,-1.86269 -0.372,-2.33929 -1.1003,-0.008 -2.2836,-0.11993 -2.9395,-1.1806 -0.681,-1.39161 -1.9715,-0.75488 -3.0592,-0.34019 -0.8366,0.62291 -1.2385,-0.22352 -1.6195,-0.85984 -0.7435,-0.99584 -1.1647,-2.33346 -2.1547,-3.10314 l -0.2346,0.0165 z"
     id="上関町"
     inkscape:connector-curvature="0" />
  <path
     style="fill:#616161;fill-opacity:1;stroke:none;stroke-width:3.02362204;stroke-miterlimit:4;stroke-dasharray:none;stroke-opacity:1"
     d="m 432.05394,269.16462 c -0.9764,1.03759 -1.2867,2.58457 -2.1813,3.68784 -1.2581,-0.36554 -2.8734,-0.58922 -3.2832,-2.04579 -0.8732,-0.71673 -0.9679,0.93659 -1.0977,1.45741 -0.4226,1.14239 0,2.90547 -1.4951,3.24415 -1.2709,1.09274 -2.5595,-0.6027 -3.8679,-0.93609 -1.292,-0.59834 -2.8362,-0.65686 -4.1848,-0.37939 -0.4021,1.77891 0.096,3.63221 1.2908,5.01317 1.4117,1.22254 -0.7488,2.35247 -1.2867,3.52458 -0.4717,0.89113 -1.3009,1.4128 -2.3255,1.22959 -1.043,0.20659 -1.5011,1.67006 -1.5015,2.51567 1.0037,1.00016 2.3274,1.90042 1.5101,3.46624 -0.1357,1.43007 -0.6977,2.88998 -0.5625,4.30124 0.509,0.64032 1.378,1.20003 1.7224,1.89422 -0.6734,0.35769 -0.6371,1.43912 0.2581,1.2622 2.0786,0.34841 2.4798,2.78846 4.1417,3.76279 1.3863,1.07388 3.1655,2.00809 3.3831,3.95664 1.027,1.50283 -1.1687,0.55 -1.4687,1.42992 0.5716,1.48467 1.0505,3.16131 1.9011,4.50242 1.171,-0.5847 2.1321,-1.80534 2.9865,-2.85143 0.6064,-0.78695 -0.305,-2.28049 1.1588,-2.23618 3.8489,-1.10654 7.8297,-1.79359 11.7351,-2.55632 0.874,1.07985 1.142,2.58545 2.1092,3.58542 1.1119,-0.0372 1.5705,-1.58859 2.6952,-1.74126 0.4463,-0.67957 -0.7209,-1.16046 -0.4588,-1.93877 -0.069,-1.36448 -0.021,-2.73157 -0.032,-4.0971 1.1427,-0.93952 3.4181,-1.54177 3.048,-3.45359 0.1274,-0.90903 2.4829,-1.53002 3.2007,-1.08965 1.1382,0.76844 -0.8447,2.2156 0.1009,3.0546 1.3109,-0.043 2.2903,-1.84997 3.7219,-1.08736 2.2035,0.57693 4.5208,0.90314 6.614,1.76715 0.6944,0.85741 0.1916,2.64796 1.3637,3.07741 0.6987,0.0634 0.579,-1.46608 1.2755,-0.79002 0.6243,0.48852 2.0537,0.98143 2.078,1.6026 -1.1704,1.3605 -3.0686,2.36636 -2.9356,4.40771 -0.071,1.34251 -0.7835,2.81047 -0.4597,4.10045 0.9128,0.28634 1.683,-1.01592 2.5143,-1.3337 1.4301,-1.01775 2.8526,-2.04598 4.2781,-3.07007 1.4463,1.23523 2.6018,2.99364 4.2248,3.91107 0.8327,-0.50734 2.4837,-0.36918 2.7986,-1.44087 -0.2634,-2.98716 -1.3839,-5.93944 -1.6398,-8.85144 0.8397,-1.16293 1.0336,-2.43221 -0.1529,-3.45224 -0.2003,-0.5393 -1.2834,-1.29532 -0.4061,-1.68477 1.1077,-0.75522 2.6715,-1.48431 2.4243,-3.10405 0.3247,-1.24119 1.8933,-1.59953 2.738,-2.43024 1.0189,0.0176 2.3755,1.28506 3.2239,0.34081 0.5641,-0.82291 1.8697,-1.12885 2.8092,-1.19422 1.1863,0.63739 1.8552,2.21154 3.1615,2.5198 1.5533,-1.65307 2.602,-3.76287 3.9326,-5.6041 1.1047,-0.32495 3.194,0.57616 3.3895,-1.06313 0.3339,-0.33759 0.2735,-2.21185 0.8895,-1.57105 0.7605,0.56469 1.5076,2.17199 2.4911,1.03292 1.9026,-0.98778 3.084,-2.76844 4.3614,-4.3974 0.5643,-0.77402 2.1041,-0.70989 2.2015,-1.75688 -0.7643,-0.66504 -1.9401,0.27792 -2.8347,0.31863 -1.2069,0.20182 -2.5636,1.02366 -3.6685,0.83535 -0.9338,-0.78699 -1.8872,-1.74171 -1.6248,-3.07484 -0.429,-1.33012 -2.3173,-0.91508 -3.362,-1.29882 -1.3169,-0.10027 -2.9721,-1.01735 -3.8003,0.50785 -1.3547,1.45563 -2.9629,2.74137 -4.1598,4.30289 -0.245,1.29336 0.4838,3.11328 -0.4023,4.0596 -1.2542,0.95871 -2.7112,1.88231 -4.3659,1.44989 -2.0007,-0.21194 -4.0202,-0.53727 -6.0372,-0.73536 -1.1017,0.96662 -1.4224,2.66547 -2.224,3.90923 -0.7954,0.22315 -2.4146,-0.46692 -2.7187,0.58609 0.3467,0.92889 1.2481,1.74807 1.5056,2.61259 -1.6778,1.46946 -3.7918,2.22667 -5.9983,2.40247 -1.367,0.18905 -2.8975,0.90543 -3.7378,-0.60467 -1.4294,-1.98696 -0.8236,1.93203 -1.9061,-0.029 -1.477,-0.74736 -0.042,-1.76129 0.4588,-2.70209 0.8269,-1.00795 0.4146,-2.62995 -0.3978,-3.48804 -1.015,-0.23563 -0.8318,1.43755 -1.8294,1.4721 -1.1653,0.39203 -2.4851,1.23901 -3.2126,-0.26146 -0.9747,-0.96971 -2.4059,-1.83056 -1.3263,-3.2907 1.0887,-1.50986 -0.5526,-2.491 -1.4703,-3.50082 -1.0441,-1.19374 -2.6117,-2.11868 -2.5001,-3.90572 -0.3419,-0.98334 -0.1172,-2.52319 -1.1134,-3.10186 -2.2918,0.49998 -4.5933,1.48431 -6.8701,1.7589 -1.5454,-0.61985 -3.0908,-1.23968 -4.6362,-1.85949 -0.4226,-1.66837 -1.098,-3.40301 -2.7619,-4.1863 -0.4532,-0.20631 -0.8521,-0.77657 -1.399,-0.66729 z"
     id="周防大島町"
     inkscape:connector-curvature="0" />
</svg>
